# xmcd
#
# Track frame offsets: 
#        150
#        18502
#        31056
#        46529
#        64875
#        79533
#        97623
#        123299
#        134268
#        151015
#        164009
#
# Disc length: 2328 seconds
#
# Revision: 0
# Processed by: cddbd v1.4PL0 Copyright (c) Steve Scherf et al.
# Submitted via: ExactAudioCopy v0.95a3
#
DISCID=7409160b
DTITLE=Jimmy Spacek - Sweet Texas Soul
DYEAR=1900
DGENRE=Blues
TTITLE0=Eagle
TTITLE1=Payin' The Price
TTITLE2=Jealous Hand
TTITLE3=Sweet Texas Soul
TTITLE4=Easy Come, Easy Go
TTITLE5=Messin' With The Kid
TTITLE6=Blues For The City
TTITLE7=Good Lookin' Lady
TTITLE8=Big Legged Woman
TTITLE9=Blues Man
TTITLE10=Three Good Reasons
EXTD=
EXTT0=
EXTT1=
EXTT2=
EXTT3=
EXTT4=
EXTT5=
EXTT6=
EXTT7=
EXTT8=
EXTT9=
EXTT10=
PLAYORDER=
